<svg xmlns="http://www.w3.org/2000/svg" width="728.973" height="120.216" viewBox="0 0 728.973 120.216">
  <g id="Ghoori_Learning_black" data-name="Ghoori Learning black" transform="translate(-166.926 -173.266)">
    <path id="Path_626" data-name="Path 626" d="M578,263.539a4.99,4.99,0,0,1-4.973,4.973H538.406a4.93,4.93,0,0,1-4.976-4.973v-59.5a4.927,4.927,0,0,1,4.976-4.973,4.99,4.99,0,0,1,4.977,4.973v54.523H573.03A4.988,4.988,0,0,1,578,263.539" fill="#242323"/>
    <path id="Path_627" data-name="Path 627" d="M627.739,243.539a4.9,4.9,0,0,1-4.976,4.875H588.44a15.169,15.169,0,0,0,14.328,10.248,19.522,19.522,0,0,0,11.142-3.283c2.287-1.492,5.371-.1,6.566,2.287,1.193,2.488-.1,5.076-2.388,6.568-6.566,4.377-11.639,4.278-15.32,4.278a24.974,24.974,0,0,1,0-49.948c12.035,0,24.971,8.754,24.971,24.975m-39.3-4.977h28.75c-2.087-6.962-8.454-10.146-14.422-10.146a15.212,15.212,0,0,0-14.328,10.146" fill="#242323"/>
    <path id="Path_628" data-name="Path 628" d="M683.441,243.936v19.5a4.811,4.811,0,0,1-4.976,4.973,5.245,5.245,0,0,1-4.776-4.973c-4.278,3.581-9.053,4.973-14.721,4.973-14.031,0-25.173-10.445-25.173-24.476a25.012,25.012,0,0,1,25.173-25.172c14.025,0,24.473,11.144,24.473,25.172m-9.752,0c0-8.358-6.368-15.42-14.721-15.42a15.63,15.63,0,0,0-15.425,15.42c0,8.359,7.064,14.726,15.425,14.726a14.445,14.445,0,0,0,14.721-14.726" fill="#242323"/>
    <path id="Path_629" data-name="Path 629" d="M719.342,223.541a4.99,4.99,0,0,1-4.974,4.975,15.114,15.114,0,0,0-15.124,15.123v20a4.926,4.926,0,1,1-9.851,0v-20a24.99,24.99,0,0,1,24.975-24.975,4.906,4.906,0,0,1,4.974,4.877" fill="#242323"/>
    <path id="Path_630" data-name="Path 630" d="M768.981,243.539v20a4.925,4.925,0,1,1-9.849,0v-20a15.122,15.122,0,1,0-30.245,0v20a4.925,4.925,0,1,1-9.85,0v-20a24.972,24.972,0,1,1,49.944,0" fill="#242323"/>
    <path id="Path_631" data-name="Path 631" d="M776.131,207.322a4.925,4.925,0,1,1,6.962-6.967,4.925,4.925,0,0,1-6.962,6.967m-1.5,56.315v-40.1a4.924,4.924,0,0,1,9.848,0v40.1a4.924,4.924,0,1,1-9.848,0" fill="#242323"/>
    <path id="Path_632" data-name="Path 632" d="M840.1,243.539v20a4.925,4.925,0,1,1-9.849,0v-20a15.124,15.124,0,0,0-30.247,0v20a4.927,4.927,0,1,1-9.853,0v-20a24.974,24.974,0,1,1,49.949,0" fill="#242323"/>
    <path id="Path_633" data-name="Path 633" d="M895.9,268.512a25,25,0,0,1-47.46,10.945,4.867,4.867,0,0,1,2.288-6.568,4.939,4.939,0,0,1,6.568,2.187,15.13,15.13,0,0,0,28.755-6.267v-5.473a24.9,24.9,0,0,1-40.1-19.8,24.973,24.973,0,1,1,49.947,0Zm-9.849-24.973a15.123,15.123,0,1,0-15.124,15.123,15.181,15.181,0,0,0,15.124-15.123" fill="#242323"/>
    <path id="Path_634" data-name="Path 634" d="M289.321,208.861c-.123,4.116-.242,8.065-.363,12.049a6.651,6.651,0,0,0-4.7,3.246c-.786,1.383-.692,1.906.473,2.981a13.087,13.087,0,0,1,4.61,9.9c.007,3.74-.689,7.262-3.054,10.268a15.7,15.7,0,0,1-8.676,5.457c-2.592.668-5.281.961-7.929,1.41-.467.08-.948.1-1.418.172-.727.117-1.312.449-1.3,1.273.007.775.57,1.088,1.257,1.238,2.3.5,4.611.965,6.9,1.532a77.623,77.623,0,0,1,7.516,2.068c4.433,1.586,6.557,5,7,9.584A15.5,15.5,0,0,1,288.5,278.6a16.932,16.932,0,0,1-7.352,7.277c-4.35,2.441-9.069,2.912-13.929,2.639a41.787,41.787,0,0,1-11.743-1.977,14.719,14.719,0,0,1-6.655-4.228,8.353,8.353,0,0,1-2.006-5.153,22.757,22.757,0,0,1,4.121-14.021c.846-1.242.836-1.543-.1-2.75a8.447,8.447,0,0,1-.762-9.764c.645-1.25.613-1.529-.334-2.517a13.88,13.88,0,0,1-3.412-14.817c1.182-3.627,3.963-5.892,7.248-7.58a33.037,33.037,0,0,1,12.666-3.385c1.2-.1,2.409-.14,3.616-.179a1.8,1.8,0,0,0,1.767-1.246,18.955,18.955,0,0,1,14.022-11.637,35.785,35.785,0,0,1,3.668-.4m-22.215,25.01c-1.658.238-3.476.387-5.24.785a3.142,3.142,0,0,0-2.676,2.865,3.273,3.273,0,0,0,1.739,3.309,13.744,13.744,0,0,0,11.4,1.266,5.168,5.168,0,0,0,3.758-4.129,2.42,2.42,0,0,0-1.385-2.85,4.62,4.62,0,0,0-1.422-.482c-1.994-.278-3.994-.5-6.176-.764m1.289,42.791c.01-.082.02-.162.03-.246.982,0,1.966.049,2.943-.012a6.548,6.548,0,0,0,3.865-1.2,3.3,3.3,0,0,0,1.259-3.191c-.161-1.26-1.074-1.664-2.159-1.877-3.3-.649-6.588-1.309-9.885-1.951a1.61,1.61,0,0,0-1.635.625,11.583,11.583,0,0,0-2.544,4.943c-.266,1.174.048,1.809,1.238,2,2.287.363,4.59.615,6.888.914m29.487-10.783h13.145c0-1.514.033-2.973-.006-4.43q-.318-12.129-.679-24.256a1.668,1.668,0,0,1,1.177-1.892c2-.629,3.982-1.317,6.012-1.8a5.991,5.991,0,0,1,4.127.248,4.619,4.619,0,0,1,2.484,4.223c.135,3.13.1,6.281-.069,9.412-.252,4.568-.7,9.127-1.036,13.689-.116,1.59-.15,3.184-.223,4.819H335.97c.023-.243.05-.459.065-.676.12-1.992.252-3.981.354-5.973.261-5.185.642-10.371.722-15.56a32.318,32.318,0,0,0-1.962-12.059c-2.043-5.385-5.7-8.93-11.5-9.914a30.765,30.765,0,0,0-11.462.482c-2.291.475-2.638.225-2.818-2.1q-.434-5.67-.9-11.336c-.108-1.3-.242-2.608-.363-3.914-4.419.232-8.763.461-13.209.693,1.282,20.154,2.633,40.229,2.981,60.342m43.887-19.836a48.162,48.162,0,0,1,1.78-11.213,15.47,15.47,0,0,1,11.8-11.031c5.142-1.213,10.329-1.438,15.319.566,6.584,2.645,11.447,7.135,13.2,14.211a25.157,25.157,0,0,1-1.326,15.442,22.179,22.179,0,0,1-7.819,10.2c-4.12,2.941-8.788,3.783-13.733,3.541a20.687,20.687,0,0,1-10.428-3.1,17.849,17.849,0,0,1-8.32-12.744c-.3-1.933-.323-3.908-.474-5.865m12.919-1.189.186.021c.062,1.205.091,2.414.188,3.617.185,2.25.694,4.379,2.431,6,3.408,3.186,9.736,2.088,11.938-2.17a17.808,17.808,0,0,0,1.539-11.3,6.734,6.734,0,0,0-4.753-5.511,22.318,22.318,0,0,0-5.5-1.018c-2.96-.193-4.746,1.192-5.327,4.115-.409,2.047-.481,4.161-.7,6.245m34.357,1.818a43.788,43.788,0,0,1,1.716-11.94,15.471,15.471,0,0,1,11.788-10.945c4.965-1.172,9.983-1.391,14.85.408a21.447,21.447,0,0,1,13.085,12.377,20.71,20.71,0,0,1,1.062,9.207,25.164,25.164,0,0,1-4.053,12.573c-4.588,6.931-11.14,9.853-19.337,9.406a20.67,20.67,0,0,1-10.784-3.33,18.12,18.12,0,0,1-8.127-13.787c-.153-1.534-.157-3.082-.2-3.969m12.815-1.817c.065.01.128.018.193.026.063,1.234.092,2.471.2,3.7a9.014,9.014,0,0,0,1.694,5.109c3.319,4.075,10.3,3.3,12.723-1.443a18.667,18.667,0,0,0,1.651-10.33,7.129,7.129,0,0,0-3.644-5.82,13.944,13.944,0,0,0-6.868-1.635c-2.832-.07-4.637,1.221-5.2,3.986-.43,2.1-.511,4.268-.748,6.406M476.7,222.8a76.463,76.463,0,0,0-23.2,4.459c-1.8.627-2.413.215-2.53-1.709-.06-.969-.114-1.94-.176-2.979-4.452.5-8.791.987-13.138,1.477,1.7,13.976.471,27.926.511,41.826h13.163v-7.727c0-5.279.017-10.56-.012-15.841a2.012,2.012,0,0,1,1.4-2.209c.579-.2,1.122-.5,1.69-.741a63.484,63.484,0,0,1,20.147-4.937c1-.07,1.995-.135,2.983-.2V222.8c-.33,0-.582-.006-.834,0m22.617-1.117H486.321c-.747,14.832-.145,29.613-.4,44.336h13.392Zm-.539-7.182c.307-3.266.606-6.463.911-9.715l-13.69-1.017V214.5Z" fill="#242323"/>
    <path id="Path_635" data-name="Path 635" d="M194.567,173.266c1.173.195,2.349.373,3.519.588a67.481,67.481,0,0,1,16.271,5.519,132.622,132.622,0,0,1,18.184,10.348,1.168,1.168,0,0,1,.633,1.133,220.436,220.436,0,0,1-2.574,30.779c-1.386,8.4-3.37,16.646-7.024,24.4a37.088,37.088,0,0,1-9.754,13.242,23.324,23.324,0,0,1-9.459,4.758c-.187.047-.382.072-.65.119.063-.119.078-.191.123-.22,5.651-3.709,9.762-8.8,13.068-14.608a63.9,63.9,0,0,0,5.629-13.281,6.38,6.38,0,0,0,.221-1.738,62.705,62.705,0,0,0-4.61-25.231,28.081,28.081,0,0,0-5.287-8.347c-.568-.612-.984-1.364-1.511-2.016a.8.8,0,0,0-.645-.287c-4.392,1.353-8.646,3.01-12.13,6.137a26.544,26.544,0,0,0-2.295,2.671c-.221.26-.445.52-.666.78-.09-.043-.181-.088-.269-.133a13.668,13.668,0,0,1,.539-1.674,18.328,18.328,0,0,1,5.476-6.516,35.3,35.3,0,0,1,15.263-6.679c2.524-.512,5.094-.8,7.841-1.215a5.387,5.387,0,0,1-.61-.385,44.094,44.094,0,0,0-22.126-10.3c-2.018-.3-4.083-.267-6.127-.369-.389-.019-.731.028-.875.561a76.293,76.293,0,0,0-3,20.082c0,.924.119,1.847.191,2.771a7.755,7.755,0,0,0,2.231,4.522,58.868,58.868,0,0,0,10.092,8.765c3.127,2.227,6.373,4.289,9.591,6.389a9.213,9.213,0,0,1,3.291,3.295,2.308,2.308,0,0,1,.317.861,1.312,1.312,0,0,1-.2.908c-.125.133-.592.077-.834-.042-1.409-.692-2.812-1.393-4.185-2.153a144.9,144.9,0,0,1-19.888-12.74,53.944,53.944,0,0,1-4.566-4.229,8.38,8.38,0,0,1-2.125-5.791,48.364,48.364,0,0,1,1.468-13.773c1.344-5.664,2.94-11.27,4.428-16.9Zm19.842,24.078c5.934,6.136,8.452,13.7,10.715,21.414.564-7.227.693-14.451.626-21.719-1.935-.123-3.777-.369-5.611-.322s-3.672.388-5.73.627M202.87,264.486a11.285,11.285,0,0,0-1.15.02,27.108,27.108,0,0,1-7.548-.137c-7.18-1.14-13.528-4.215-19.454-8.312a10.828,10.828,0,0,0-3.172-1.461c-2.194-.621-3.645.006-4.62,1.765v1.348a7.733,7.733,0,0,0,3.209,3.863c5.364,3.455,11.081,5.994,17.533,6.5a24.713,24.713,0,0,0,15.181-3.6Zm-.023-.015c.047-.043.093-.084.138-.127-.023,0-.066-.012-.07,0a1.168,1.168,0,0,0-.045.146Z" fill="#e93b18"/>
  </g>
</svg>
